<svg data-name="Layer 1" xmlns="http://www.w3.org/2000/svg" width="210.056" height="86.504" viewBox="0 0 157.542 64.878"><path fill="#fff" d="M64.642 13.836h-10.1v16.4h2.9v-6.8h7v-2.8h-7v-4h7.2v-2.8zM69.342 12.236h-.3l-2.6.2v17.8h2.9v-18zM77.042 17.036a10.493 10.493 0 0 0-4.7 1.1l.7 2.5a8.51 8.51 0 0 1 1.7-.6 5.662 5.662 0 0 1 1.8-.3 2.73 2.73 0 0 1 1.8.5 2.226 2.226 0 0 1 .7 1.9v.6c-1.1-.1-2-.1-2.6-.1a5.575 5.575 0 0 0-3.6.9 3.253 3.253 0 0 0-1 2.6 4.728 4.728 0 0 0 .7 2.6 2.982 2.982 0 0 0 1.7 1.2 6.795 6.795 0 0 0 1.9.3 4.211 4.211 0 0 0 2-.4 6.527 6.527 0 0 0 1.5-1 4.789 4.789 0 0 0 1.5 1.1 3.926 3.926 0 0 0 1.4.3l1.3-2.4a2.986 2.986 0 0 1-1.4-.6 1.728 1.728 0 0 1-.5-1.3v-4.8a4.1 4.1 0 0 0-1.4-3.3 7.845 7.845 0 0 0-3.5-.8m-.5 11a1.583 1.583 0 0 1-1.8-1.6c0-.8.4-1.1 1.1-1.3a13.045 13.045 0 0 1 2.3-.2h.9v.8a2.064 2.064 0 0 1-.9 1.9 2.849 2.849 0 0 1-1.6.4M92.242 17.036a7.646 7.646 0 0 0-4.1 1.3l-.3-1h-2.5v12.9h2.9v-9.6a5.376 5.376 0 0 1 2.8-.8 3.173 3.173 0 0 1 2 .6 2.6 2.6 0 0 1 .9 2.1v7.7h2.9v-8.6a4.554 4.554 0 0 0-1.4-3.5 4.77 4.77 0 0 0-3.2-1.1M110.942 12.236h-.4l-2.5.2v4.7a12.75 12.75 0 0 0-1.9-.1 6.727 6.727 0 0 0-4.9 1.8 7.485 7.485 0 0 0-2 5.5 6.543 6.543 0 0 0 1.4 4.3 5.188 5.188 0 0 0 4.1 1.9 5.906 5.906 0 0 0 3.5-1.2l.5 1h2.2v-18.1zm-5.6 15.4a2.79 2.79 0 0 1-2.3-1.2 4.78 4.78 0 0 1-.8-2.7 4.5 4.5 0 0 1 1-3 3.474 3.474 0 0 1 2.7-1 8.815 8.815 0 0 1 2.1.3v6.8a5.3 5.3 0 0 1-2.7.8M119.142 17.036a5.606 5.606 0 0 0-4 1.7 6.898 6.898 0 0 0-1.8 5 6.597 6.597 0 0 0 2 5 6.95 6.95 0 0 0 4.7 1.7 12.365 12.365 0 0 0 1.8-.2 5.462 5.462 0 0 0 1.8-.6v-2.8h-.1a7.216 7.216 0 0 1-3.2.8 4.383 4.383 0 0 1-2.3-.6 3.642 3.642 0 0 1-1.5-2.2h7.8v-1.9a5.857 5.857 0 0 0-1.1-3.9 4.033 4.033 0 0 0-2.2-1.6 5.81 5.81 0 0 0-1.9-.4m-2.7 5.5a4.217 4.217 0 0 1 1.1-2.1 2.716 2.716 0 0 1 1.7-.6 2.452 2.452 0 0 1 1.6.6 2.924 2.924 0 0 1 .8 2.1zM132.742 17.036a4.872 4.872 0 0 0-3.3 1.3l-.3-1.1h-2.5v12.9h2.9v-9.4a4.317 4.317 0 0 1 2.6-.9 4.56 4.56 0 0 1 2.2.6l.9-2.9a3.992 3.992 0 0 0-1.3-.4c-.4 0-.9-.1-1.2-.1M140.642 17.036a5.167 5.167 0 0 0-3.1.9 3.552 3.552 0 0 0-1.4 2.9 5.902 5.902 0 0 0 .2 1.4 3.318 3.318 0 0 0 1.5 1.6 11.764 11.764 0 0 0 2 .7l.9.3a1.34 1.34 0 0 1 .8 1.3 1.387 1.387 0 0 1-.7 1.2 3.653 3.653 0 0 1-1.5.3 5.662 5.662 0 0 1-1.8-.3 6.446 6.446 0 0 1-1.4-.6l-.1.1v2.7a5.816 5.816 0 0 0 3.3.9 5.476 5.476 0 0 0 3.4-1 4.005 4.005 0 0 0 1.5-3.3 5.212 5.212 0 0 0-.2-1.4 3.14 3.14 0 0 0-1.5-1.7 6.982 6.982 0 0 0-2-.8l-.9-.3a1.053 1.053 0 0 1-.8-1 .961.961 0 0 1 .6-.9 3.194 3.194 0 0 1 1.4-.3 5.45 5.45 0 0 1 2.2.5l.1-.1v-2.6a5.214 5.214 0 0 0-2.5-.5M11.042 11.536s.7 1.4 3.3 13.9a67.535 67.535 0 0 0 1.7 7.8c.2.7.7 2 1 2.7.8 1.8 3 4.5 3.1 7 .1 1.4.2 2.6.3 3.7a11.53 11.53 0 0 0 .4 2.2c.5 1.5 4.8 6.3 9.4 6.3v-3.7c-4.5 0-8.8-2.5-8.9-2.8a8.601 8.601 0 0 1 .5-2.6 4.347 4.347 0 0 1 3.7-3h.7c1.8 0 2.9.5 4 .5v-11.7a2.659 2.659 0 0 0-1.4-.6 2.958 2.958 0 0 0-1 .2 2.92 2.92 0 0 1-.9.2h-.1c-.8-.1-1.5-1.2-2.2-1.2-.1 0-.2 0-.2.1-1.3.7.5 3 1.3 3.5.7.4 1.6.8 1.8.9a2.651 2.651 0 0 1 1.6 2.4 4.869 4.869 0 0 1-.1 1.2 4.914 4.914 0 0 1-4.4 3 2.618 2.618 0 0 1-1.7-.5 4.513 4.513 0 0 1-2.1-3c-.6-2.7-2.5-4.6-3.1-7.3-.4-1.6-.7-3.3-1.1-4.9-.4-1.7-.9-3.3-1.2-4.8a38.216 38.216 0 0 0-1.5-4.8c-1.8-4.4-2.7-4.7-2.9-4.7M10.542 18.536c-.2 2.7-4.4 6.5-5.7 8.9a26.548 26.548 0 0 0-1.7 4.4 12.08 12.08 0 0 0 .9 7.2 6.5 6.5 0 0 1 .5 4.1c.1 0 .2-.1.4-.2 1.4-1.1 1.1-3.7 1.1-5.3a20.576 20.576 0 0 1 0-4.3 20.982 20.982 0 0 1 3.6-8.2 7.58 7.58 0 0 0 .9-6.6M11.342 26.336s.5 2.2-1.5 7.7c-5 14.6 4.6 16 7.3 19.4 0 0 1.1-1.5-3.3-6.2-1.6-1.7-3-5.6-1.8-11 1.9-8-.7-9.9-.7-9.9M7.342 7.136c-.2 1-1.6 1.9-1.6 1.9-.8.5-3.9 1.9-4.1 5.3a6.166 6.166 0 0 0 .2 2.3 9.563 9.563 0 0 1 3.6-3.9 4.636 4.636 0 0 0 1.9-5.6M8.342 12.436s1.3 1.1-5.2 6.5-.9 8.5-.9 8.5-1.6-3.1 3.6-7.5c5.3-4.4 4-6.2 3.8-6.6a1.41 1.41 0 0 0-1.3-.9M19.542 14.736a11.115 11.115 0 0 0-2.9.4c.9.1 1.5 3 3.6 3.6 1.6.5 3.2.2 3.6 1.1-.7.3-.2 1.4.4 1.4h.2c.4-1.4.7-6.5-4.9-6.5m1.7 3.5c-1 0-2.1-.7-1.8-1.9.1-.2.2 0 .4-.2a2.178 2.178 0 0 1 .9-.7h.4a1.268 1.268 0 0 1 .6.1c.2 0 .1.5-.1.6-.3.2-1.1-.1-1.1.5a.458.458 0 0 0 .4.5 3.091 3.091 0 0 0 .8-.2 2.92 2.92 0 0 1 .9-.2 1.297 1.297 0 0 1-1.4 1.5M29.072.099L29.355 0l22.57 64.779-.284.099zM53.542 47.736c.3.1.6.2 1 .3a4.869 4.869 0 0 0 1.2.1 2.726 2.726 0 0 0 1.6-.4 1.56 1.56 0 0 0 .7-1.3 1.65 1.65 0 0 0-.9-1.5c-.4-.3-1-.5-1.5-.8a8.69 8.69 0 0 1-1.4-.8 2.346 2.346 0 0 1-.8-2 2.716 2.716 0 0 1 1-2.2 4.032 4.032 0 0 1 2.2-.6 5.662 5.662 0 0 1 1.8.3v1a8.97 8.97 0 0 0-1.8-.2 3.194 3.194 0 0 0-1.4.3c-.4.2-.6.6-.6 1.3a1.82 1.82 0 0 0 .4 1.1 5.045 5.045 0 0 0 1.3.7c.5.3 1.1.6 1.6.9a2.36 2.36 0 0 1 .9.8 2.501 2.501 0 0 1 .4 1.3 2.84 2.84 0 0 1-1.1 2.3 4.295 4.295 0 0 1-2.5.7 3.845 3.845 0 0 1-2.1-.5v-.8zM60.342 41.036h.9v-1.5l1.1-.2h.1v1.7h2.2v1.1h-2.2v4a3.408 3.408 0 0 0 .4 1.6 1.389 1.389 0 0 0 1 .5 2.976 2.976 0 0 0 1.5-.5l.3 1.1a5.34 5.34 0 0 1-2 .5 2.41 2.41 0 0 1-1.8-.7 3.286 3.286 0 0 1-.7-2.4v-4h-.9v-1.2zM71.142 45.636a18.577 18.577 0 0 0-2.6.1c-.6.2-.9.5-.9 1.1a1.22 1.22 0 0 0 .6 1.1 1.345 1.345 0 0 0 .8.2 3.53 3.53 0 0 0 1.4-.3 1.923 1.923 0 0 0 .8-1.6v-.6zm1.7 3.7a1.887 1.887 0 0 1-1.2-1.1 3.134 3.134 0 0 1-1.1.8 3.194 3.194 0 0 1-1.4.3 2.793 2.793 0 0 1-1.7-.5 2.387 2.387 0 0 1-.9-2 2.06 2.06 0 0 1 .7-1.7 3.845 3.845 0 0 1 2.4-.6 10.364 10.364 0 0 1 1.6.1v-1a1.69 1.69 0 0 0-.4-1.2 2.016 2.016 0 0 0-1.1-.3 4.869 4.869 0 0 0-1.2.1 3.08 3.08 0 0 0-1.2.5l-.3-1.1a12.129 12.129 0 0 1 1.4-.5 6.267 6.267 0 0 1 1.6-.2 2.333 2.333 0 0 1 1.8.6 2.564 2.564 0 0 1 .8 2.1v2.6a2.345 2.345 0 0 0 .2 1.2 1.22 1.22 0 0 0 .9.8zM74.142 41.036h.9v-1.5l1.1-.2h.1v1.7h2.2v1.1h-2.2v4a3.408 3.408 0 0 0 .4 1.6 1.389 1.389 0 0 0 1 .5 2.976 2.976 0 0 0 1.5-.5l.3 1.1a5.34 5.34 0 0 1-2 .5 2.41 2.41 0 0 1-1.8-.7 3.286 3.286 0 0 1-.7-2.4v-4h-.9v-1.2zM85.342 44.336a3.808 3.808 0 0 0-.3-1.6 1.327 1.327 0 0 0-1.3-.7 2.035 2.035 0 0 0-1.5.6 2.928 2.928 0 0 0-.7 1.6h3.8zm1.2 1.1h-5a3.397 3.397 0 0 0 .9 2.1 2.41 2.41 0 0 0 1.8.7 4.867 4.867 0 0 0 2.2-.6v1.1a5.253 5.253 0 0 1-2.3.6 3.392 3.392 0 0 1-2.6-1 4.516 4.516 0 0 1-1.1-3.3 4.985 4.985 0 0 1 .8-2.9 3.236 3.236 0 0 1 2.6-1.2 2.97 2.97 0 0 1 1.8.5 2.872 2.872 0 0 1 .8 1.3 8.752 8.752 0 0 1 .2 1.6v1.1zM93.542 45.036a4.032 4.032 0 0 0 .6 2.2 2.196 2.196 0 0 0 1.9.9 2.019 2.019 0 0 0 1.8-.9 3.593 3.593 0 0 0 .6-2.2 3.803 3.803 0 0 0-.6-2.2 2.082 2.082 0 0 0-1.9-.9 2.322 2.322 0 0 0-1.9.9 7.116 7.116 0 0 0-.5 2.2m-1.2.1a4.426 4.426 0 0 1 1.1-3 3.424 3.424 0 0 1 2.7-1.2 3.777 3.777 0 0 1 2.7 1.2 5 5 0 0 1 0 6 3.424 3.424 0 0 1-2.7 1.2 3.777 3.777 0 0 1-2.7-1.2 4.426 4.426 0 0 1-1.1-3M100.742 41.036h1.3a3.923 3.923 0 0 1 .7-2.5 2.06 2.06 0 0 1 1.7-.7 6.795 6.795 0 0 1 1.9.3l-.3 1.1a3.926 3.926 0 0 0-1.4-.3 1.284 1.284 0 0 0-1 .4 2.826 2.826 0 0 0-.4 1.6h1.8v1.1h-1.8v7h-1.2v-7h-1.3v-1zM110.442 41.036h.9v-1.5l1.1-.2h.1v1.7h2.2v1.1h-2.2v4a3.408 3.408 0 0 0 .4 1.6 1.389 1.389 0 0 0 1 .5 2.976 2.976 0 0 0 1.5-.5l.3 1.1a5.34 5.34 0 0 1-2 .5 2.41 2.41 0 0 1-1.8-.7 3.286 3.286 0 0 1-.7-2.4v-4h-.9v-1.2zM117.242 38.036l1.1-.2h.1v3.8a3.697 3.697 0 0 1 1.1-.5 5.16 5.16 0 0 1 1.1-.2 2.724 2.724 0 0 1 2 .7 3.146 3.146 0 0 1 .9 2.4v5.2h-1.2v-5.1a2.173 2.173 0 0 0-.5-1.6 1.844 1.844 0 0 0-1.3-.4 3.595 3.595 0 0 0-1.1.2 9.25 9.25 0 0 1-1 .5v6.4h-1.2zM130.442 44.336a3.808 3.808 0 0 0-.3-1.6 1.327 1.327 0 0 0-1.3-.7 2.035 2.035 0 0 0-1.5.6 2.928 2.928 0 0 0-.7 1.6h3.8zm1.2 1.1h-5a3.397 3.397 0 0 0 .9 2.1 2.41 2.41 0 0 0 1.8.7 4.867 4.867 0 0 0 2.2-.6v1.1a5.253 5.253 0 0 1-2.3.6 3.392 3.392 0 0 1-2.6-1 4.516 4.516 0 0 1-1.1-3.3 4.985 4.985 0 0 1 .8-2.9 3.236 3.236 0 0 1 2.6-1.2 2.97 2.97 0 0 1 1.8.5 2.872 2.872 0 0 1 .8 1.3 8.752 8.752 0 0 1 .2 1.6v1.1zM139.442 45.636h3.8l-1.9-5.5zm4.2 1.1h-4.5l-.8 2.4h-1.2l3.5-10.3h1.6l3.5 10.3h-1.2zM147.142 41.036h.8l.3.9a2.574 2.574 0 0 1 2-1.1 1.952 1.952 0 0 1 .7.1 1.854 1.854 0 0 1 .7.2l-.4 1.1a4.253 4.253 0 0 0-1.1-.2 2.174 2.174 0 0 0-1.7 1.1v6.1h-1.2v-8.2zM152.242 41.036h.9v-1.5l1.1-.2h.1v1.7h2.2v1.1h-2.2v4a3.408 3.408 0 0 0 .4 1.6 1.389 1.389 0 0 0 1 .5 2.976 2.976 0 0 0 1.5-.5l.3 1.1a5.34 5.34 0 0 1-2 .5 2.41 2.41 0 0 1-1.8-.7 3.286 3.286 0 0 1-.7-2.4v-4h-.9v-1.2z"/></svg>